<?xml version="1.0" encoding="utf-8"?>
<!-- Generator: Adobe Illustrator 19.0.0, SVG Export Plug-In . SVG Version: 6.00 Build 0)  -->
<svg version="1.1" id="Layer_1" xmlns="http://www.w3.org/2000/svg" xmlns:xlink="http://www.w3.org/1999/xlink" x="0px" y="0px"
	 viewBox="0 0 150 42" style="enable-background:new 0 0 150 42;" xml:space="preserve">
<style type="text/css">
	.st0{fill:#414042;}
</style>
<g>
	<g>
		<g>
			<path class="st0" d="M1.1,24.4l9.1-13.6H2V7.7h14.1v0.6L7,21.7h8.8v3.2H1.1V24.4z"/>
			<path class="st0" d="M25.2,5.5h-6.4V1.3H37v4.1h-6.4v19.4h-5.4V5.5z"/>
			<path class="st0" d="M42.6,1.3h6.9l7.6,23.5h-5.6L50,19.6h-8.5l-1.6,5.2h-5L42.6,1.3z M42.6,15.9h6.2L45.7,5.7L42.6,15.9z"/>
			<path class="st0" d="M59.6,1.3H65v23.5h-5.4V1.3z"/>
			<path class="st0" d="M69,1.3h5.3v19.4h9.6v4.2H69V1.3z"/>
			<path class="st0" d="M84,13.3V13c0-7,5.1-12,12.1-12c7.1,0,12.1,4.8,12.1,11.9v0.3c0,7-4.8,12.1-12.2,12.1
				C88.8,25.2,84,20.1,84,13.3z M102.7,13.2v-0.3c0-4.6-2.4-7.7-6.6-7.7c-4.1,0-6.6,3-6.6,7.7v0.3c0,4.8,2.8,7.8,6.6,7.8
				C100.2,21,102.7,17.9,102.7,13.2z"/>
			<path class="st0" d="M110.5,1.3h8.4c5.6,0,9.1,2.3,9.1,7.1v0.1c0,3.6-2.1,5.4-4.8,6.3l6.2,10h-5.7l-5.6-9.1h-2.3v9.1h-5.3V1.3z
				 M118.8,12.2c2.7,0,4-1.1,4-3.4V8.6c0-2.4-1.4-3.2-4-3.2h-3v6.8H118.8z"/>
			<path class="st0" d="M130.2,17.5h5.1c0.2,2.1,1.1,3.9,4.6,3.9c2.3,0,3.9-1.3,3.9-3.1c0-1.9-1-2.5-4.4-3.1c-6-0.8-8.5-2.6-8.5-7.1
				c0-4,3.4-7,8.6-7c5.3,0,8.4,2.4,8.8,7h-4.9c-0.3-2.1-1.6-3.1-3.9-3.1c-2.3,0-3.5,1.1-3.5,2.7c0,1.7,0.8,2.5,4.4,3
				c5.7,0.7,8.6,2.3,8.6,7.1c0,4.2-3.4,7.5-9,7.5C133.5,25.2,130.5,22.2,130.2,17.5z"/>
		</g>
	</g>
	<g>
		<path class="st0" d="M4.2,33.1h1.1l2.4,7H6.8l-0.7-2H3.3l-0.7,2H1.8L4.2,33.1z M3.5,37.4h2.4l-1.2-3.6L3.5,37.4z"/>
		<path class="st0" d="M11.8,36.7L11.8,36.7c0-2.1,1.4-3.7,3.4-3.7c1.4,0,2.6,0.6,2.9,2.2h-0.9c-0.2-1.1-1-1.6-2-1.6
			c-1.6,0-2.5,1.2-2.5,2.9v0.1c0,1.7,0.9,2.9,2.5,2.9c1.5,0,2.2-1,2.2-2.2h-2.1v-0.7h2.9v0.5c0,2-1.2,3.1-3,3.1
			C13.1,40.2,11.8,38.7,11.8,36.7z"/>
		<path class="st0" d="M20.1,33.1h4.1v0.7h-3.2v2.4h2.6v0.7h-2.6v2.5h3.4v0.7h-4.3V33.1z"/>
		<path class="st0" d="M25.5,36.7L25.5,36.7c0-2.1,1.4-3.6,3.5-3.6s3.4,1.6,3.4,3.5v0.1c0,2-1.4,3.6-3.4,3.6
			C26.9,40.2,25.5,38.6,25.5,36.7z M31.5,36.6L31.5,36.6c0-1.7-0.9-2.9-2.5-2.9c-1.6,0-2.6,1.2-2.6,2.9v0.1c0,1.7,1.1,2.9,2.6,2.9
			C30.6,39.5,31.5,38.3,31.5,36.6z"/>
		<path class="st0" d="M34.2,33.1h2.1c1.3,0,2.5,0.6,2.5,2v0c0,1.2-0.8,1.7-1.7,1.9l2.2,3.1h-1l-2.1-3.1H35v3.1h-0.9V33.1z
			 M36.3,36.4c1,0,1.5-0.4,1.5-1.3v0c0-1-0.6-1.3-1.5-1.3H35v2.6H36.3z"/>
		<path class="st0" d="M40.2,36.7L40.2,36.7c0-2.1,1.4-3.7,3.4-3.7c1.4,0,2.6,0.6,2.9,2.2h-0.9c-0.2-1.1-1-1.6-2-1.6
			c-1.6,0-2.5,1.2-2.5,2.9v0.1c0,1.7,0.9,2.9,2.5,2.9c1.5,0,2.2-1,2.2-2.2h-2.1v-0.7h2.9v0.5c0,2-1.2,3.1-3,3.1
			C41.5,40.2,40.2,38.7,40.2,36.7z"/>
		<path class="st0" d="M48.4,33.1h4.1v0.7h-3.2v2.4h2.6v0.7h-2.6v2.5h3.4v0.7h-4.3V33.1z"/>
		<path class="st0" d="M56.7,40l4-6.2H57v-0.7h4.8v0.1l-3.9,6.2h3.8v0.7h-5.1V40z"/>
		<path class="st0" d="M63.5,33.1h0.9v7h-0.9V33.1z"/>
		<path class="st0" d="M66.5,33.1h1.2l2.2,5.5l2.1-5.5h1.2v7h-0.9v-5.9L70,40.1h-0.3l-2.4-5.9v5.9h-0.8V33.1z"/>
		<path class="st0" d="M75.2,33.1h1.2l2.2,5.5l2.1-5.5h1.2v7H81v-5.9l-2.3,5.9h-0.3L76,34.2v5.9h-0.8V33.1z"/>
		<path class="st0" d="M84,33.1h4.1v0.7h-3.2v2.4h2.6v0.7h-2.6v2.5h3.4v0.7H84V33.1z"/>
		<path class="st0" d="M89.9,33.1H92c1.3,0,2.5,0.6,2.5,2v0c0,1.2-0.8,1.7-1.7,1.9l2.2,3.1h-1l-2.1-3.1h-1.1v3.1h-0.9V33.1z
			 M92.1,36.4c1,0,1.5-0.4,1.5-1.3v0c0-1-0.6-1.3-1.5-1.3h-1.3v2.6H92.1z"/>
		<path class="st0" d="M99,36.7L99,36.7c0-2.2,1.4-3.7,3.3-3.7c1.5,0,2.7,0.8,2.8,2.3h-0.8c-0.2-1.1-0.8-1.6-2-1.6
			c-1.5,0-2.4,1.1-2.4,2.9v0.1c0,1.8,0.9,2.9,2.4,2.9c1.1,0,1.9-0.6,2.1-1.7h0.8c-0.2,1.6-1.4,2.4-2.9,2.4
			C100.2,40.2,99,38.8,99,36.7z"/>
		<path class="st0" d="M106.5,36.7L106.5,36.7c0-2.1,1.4-3.6,3.5-3.6s3.4,1.6,3.4,3.5v0.1c0,2-1.4,3.6-3.4,3.6
			C107.9,40.2,106.5,38.6,106.5,36.7z M112.5,36.6L112.5,36.6c0-1.7-0.9-2.9-2.5-2.9c-1.6,0-2.6,1.2-2.6,2.9v0.1
			c0,1.7,1.1,2.9,2.6,2.9C111.5,39.5,112.5,38.3,112.5,36.6z"/>
		<path class="st0" d="M115.1,33.1h1.2l2.2,5.5l2.1-5.5h1.2v7h-0.9v-5.9l-2.3,5.9h-0.3l-2.4-5.9v5.9h-0.8V33.1z"/>
		<path class="st0" d="M123.9,33.1h2c1.3,0,2.5,0.6,2.5,2.1v0c0,1.5-1.1,2.1-2.5,2.1h-1.1v2.9h-0.9V33.1z M125.9,36.6
			c1,0,1.5-0.5,1.5-1.4v0c0-1-0.6-1.4-1.5-1.4h-1.2v2.8H125.9z"/>
		<path class="st0" d="M131.3,33.1h1.1l2.4,7H134l-0.7-2h-2.9l-0.7,2h-0.8L131.3,33.1z M130.6,37.4h2.4l-1.2-3.6L130.6,37.4z"/>
		<path class="st0" d="M136.4,33.1h1.1l3.4,5.8v-5.8h0.8v7h-1l-3.5-6v6h-0.8V33.1z"/>
		<path class="st0" d="M145.5,37.1l-2.3-4h1l1.8,3.3l1.8-3.3h0.9l-2.2,4v3.1h-0.9V37.1z"/>
	</g>
</g>
</svg>
